<svg t="1690974600200" class="icon" viewBox="0 0 1024 1024" version="1.1"
  xmlns="http://www.w3.org/2000/svg" p-id="2337" width="200" height="200">
  <path
    d="M447.89248 946.66752c-4.71552-14.40256-9.38496-28.05248-32.35328-44.8256-9.2416-6.75328-25.51296-9.69728-42.74176-12.81024-24.35584-4.39808-51.95776-9.39008-72.01792-27.44832-17.28512-15.5648-24.15616-39.424-30.7968-62.49984-5.16608-17.95584-10.50624-36.52096-20.34688-48.04096-9.01632-10.56256-24.81152-18.21696-41.53344-26.32192-22.82496-11.0592-46.42304-22.5024-58.94144-44.31872-13.16352-22.94272-10.24-49.93536-7.40864-76.03712 1.8944-17.46944 3.68128-33.9712 0.36352-47.04768-3.11808-12.30336-11.81696-25.50272-21.02784-39.48032-14.51008-22.01088-30.95552-46.96576-27.88352-75.1616 2.73408-25.10848 21.74464-44.19072 40.12544-62.64832 12.3904-12.43648 25.20064-25.29792 31.872-39.02464 5.00224-10.2912 6.15424-25.63072 7.3728-41.87648 1.9456-25.87136 4.1472-55.18848 22.9376-77.39904 14.44864-17.06496 37.8368-23.89504 60.45696-30.49984 18.5344-5.40672 37.69344-11.00288 50.42176-21.77536 9.43616-7.99232 16.3584-23.27552 23.68512-39.45984 10.0096-22.0928 21.34528-47.13984 43.39712-61.90592 18.21184-12.19584 41.856-13.3888 64.72704-14.5408 19.55328-0.98304 39.77216-2.00192 54.10304-10.01472 0.77824-0.4352 1.5872-0.75264 2.40128-1.04448 0.10752-1.20832 0.21504-2.41664 0.21504-3.74784C239.16032 39.66976 32.1024 247.28064 32.1024 503.26528c0 241.69984 184.59648 440.25344 420.48512 462.44864a13.77792 13.77792 0 0 1-1.77664-1.47456 15.3088 15.3088 0 0 1-2.9184-17.57184z"
    fill="#84B857" p-id="2338"></path>
  <path
    d="M439.8592 874.59328c-20.5568-8.72448-43.8528-18.61632-56.36096-39.56736-10.21952-17.1264-8.29952-38.64576-6.44096-59.45856 1.46944-16.45568 2.98496-33.46944-2.1504-44.71808-4.21376-9.22624-16.90112-18.41152-29.17376-27.2896-17.3056-12.52864-36.92032-26.7264-43.60704-48.16384-6.31296-20.24448 1.25952-41.38496 8.58112-61.824 5.33504-14.88896 10.84928-30.28992 9.06752-41.64096-1.6128-10.24-11.08992-22.63552-20.25984-34.62144-13.08672-17.11616-27.91424-36.51072-27.70944-59.14112 0.19968-21.46816 14.32576-39.22432 27.99104-56.39168 9.78944-12.29312 19.90656-25.0112 22.04672-36.36736 1.85856-9.88672-2.73408-24.49408-7.17824-38.62528-6.53312-20.77184-13.93664-44.31872-5.76-65.94048 7.40352-19.57888 26.40896-31.29856 44.78464-42.62912 13.65504-8.4224 27.77088-17.1264 33.7408-27.4944 4.92544-8.5504 5.15072-23.8848 5.37088-38.7072 0.32256-21.58592 0.68096-46.0544 14.8224-64.21504 0.16896-0.21504 0.37376-0.38912 0.54272-0.59904-6.83008 1.32096-12.88192 3.26656-17.58208 6.41024-14.7712 9.89184-23.78752 29.7984-32.50688 49.05472-8.41216 18.56512-17.10592 37.76512-31.81568 50.23232-17.70496 14.99136-41.0624 21.80608-61.66528 27.82208-19.0976 5.57568-37.14048 10.83904-45.61408 20.85376-12.35968 14.60224-14.08512 37.6064-15.75424 59.8528-1.3824 18.4064-2.81088 37.43744-10.37824 53.00736-8.91392 18.33984-23.56736 33.0496-37.73952 47.27296-15.31392 15.37536-29.78304 29.9008-31.34976 44.29312-1.87392 17.19808 10.20928 35.52768 22.99392 54.93248 10.20928 15.488 20.76672 31.50336 25.15968 48.83456 4.67456 18.44224 2.49856 38.50752 0.39424 57.91232-2.4064 22.1952-4.67968 43.1616 3.51744 57.43616 7.80288 13.59872 26.20928 22.51776 45.69088 31.96416 18.83136 9.12384 38.30272 18.56512 51.50208 34.01728 14.1568 16.57856 20.43392 38.39488 26.50624 59.4944 5.69344 19.7888 11.07456 38.48704 21.82656 48.16384 13.56288 12.21632 35.6096 16.19968 56.92416 20.04992 20.80256 3.75808 40.448 7.31648 55.3984 18.23232 20.65408 15.08352 30.62272 29.34272 36.61312 42.14784a183.26016 183.26016 0 0 1 8.53504-9.17504l1.44384-1.49504c-1.92-4.9152-4.864-10.24-9.34912-16.27136-4.85376-6.52288-18.176-12.17536-31.05792-17.64864zM601.37984 135.43936c19.63008 8.35072 39.93088 16.98816 50.21184 34.84672 11.55584 20.06016 8.2176 44.4672 5.2736 65.9968-2.00192 14.63296-4.0704 29.76768-0.55808 39.05024 4.16256 10.99264 16.47104 21.82144 28.36992 32.29184 16.37888 14.4128 33.32096 29.31712 37.25312 50.20672 4.23936 22.51776-7.14752 44.3136-17.19296 63.54432-6.92224 13.24032-14.07488 26.9312-13.9776 37.16608 0.10752 11.4432 7.88992 25.68704 15.42144 39.46496 10.50624 19.22048 21.37088 39.09632 18.03264 60.29312-3.49184 22.15936-21.02272 38.912-36.50048 53.6832-10.9824 10.49088-22.33344 21.33504-25.41568 31.22176-3.50208 11.22816-0.08192 27.4944 3.23584 43.22304 4.4032 20.93056 8.95488 42.56768 0.34816 61.42976-9.50272 20.8128-30.84288 32.71168-49.66912 43.20256-12.99968 7.2448-26.43968 14.74048-31.35488 22.96832-7.1424 11.96032-7.4496 30.0288-7.7568 47.49824-0.34304 19.8912-0.70656 40.45824-11.6224 55.14752a118.56384 118.56384 0 0 1-7.53664 9.14944c9.856-0.75776 20.608-4.42368 36.0704-15.7184 9.91744-7.23968 16.93184-23.95648 24.36096-41.65632 8.6528-20.62336 18.46784-44.0064 36.38784-60.14464 14.93504-13.44512 35.74272-19.77344 55.86944-25.90208 20.7872-6.3232 40.4224-12.29824 51.03104-24.72448 10.19392-11.93984 12.672-32.11264 15.2832-53.4784 2.51904-20.58752 5.13024-41.8816 15.22176-59.4688 9.72288-16.95744 25.9072-29.93664 41.55392-42.48576 17.32608-13.9008 33.6896-27.02848 37.59104-42.42944 3.95776-15.61088-4.87936-35.02592-14.23872-55.5776-7.86432-17.26976-15.99488-35.12832-18.02752-53.80608-1.8176-16.70144 2.32448-34.5856 6.33344-51.88096 5.36064-23.13216 10.4192-44.98432 2.13504-62.02368-5.8368-12.0064-22.9376-21.13024-41.05728-30.7968-18.19136-9.70752-38.80448-20.70016-53.18656-37.69344-11.86304-14.02368-17.55136-33.41312-23.05024-52.16768-6.0928-20.79232-12.40064-42.2912-26.48576-54.22592-10.10176-8.5504-28.47232-11.25376-47.91296-14.11584-21.62176-3.17952-46.1312-6.784-65.67424-19.87584-15.48288-10.368-25.92768-27.43808-35.75296-44.45184 1.85856 12.01152 4.224 23.39328 9.1904 29.76768 7.43936 9.55904 22.87104 16.12288 37.79584 22.47168z"
    fill="#84B857" p-id="2339"></path>
  <path
    d="M540.83072 898.35008c5.02272-6.7584 5.29408-22.30784 5.5552-37.34528 0.35328-20.49536 0.75776-43.7248 12.08832-62.71488 9.1392-15.30368 26.24-24.84224 42.7776-34.05824 15.41632-8.59648 31.36-17.47968 36.67456-29.12768 4.41344-9.66144 0.9216-26.27584-2.46272-42.34752-4.1216-19.57888-8.38144-39.82336-2.49856-58.69056 5.44256-17.47456 19.72224-31.10912 33.53088-44.29312 12.53376-11.97056 25.49248-24.35072 27.3664-36.2496 1.7152-10.86464-6.59968-26.07616-14.63808-40.7808-9.344-17.09568-19.01056-34.77504-19.18464-53.91872-0.16384-17.92512 8.80128-35.08224 17.46944-51.67104 8.1152-15.52896 16.50688-31.58528 14.2336-43.63264-1.97632-10.50112-14.87872-21.85216-27.35616-32.82944-14.72512-12.94848-29.94688-26.3424-36.80768-44.48768-6.272-16.57856-3.66592-35.64544-1.14688-54.08256 2.38592-17.47456 4.85376-35.53792-1.4592-46.50496-5.15072-8.94976-20.63872-15.5392-35.61472-21.90848-18.52928-7.8848-37.6832-16.03072-50.01216-31.86688-11.0848-14.2336-13.87008-33.62304-16.5632-52.3776-0.6144-4.26496-1.23392-8.57088-1.95072-12.76928-0.7168 0.62976-1.38752 1.3056-2.12992 1.89952-4.97664 9.5744-11.83744 16.63488-17.8944 22.84544-9.70752 9.94816-16.11264 16.52224-16.11264 31.26784 0 14.75072 6.41024 21.3248 16.11264 31.27296 11.06944 11.35104 24.84224 25.47712 24.84224 52.72064s-13.7728 41.3696-24.84224 52.71552c-9.70752 9.94816-16.11264 16.52224-16.11264 31.26272 0 14.7456 6.41024 21.31968 16.11264 31.26784 11.06944 11.35104 24.84224 25.472 24.84224 52.72064s-13.7728 41.37472-24.84224 52.72064c-9.70752 9.94816-16.11264 16.52224-16.11264 31.27296s6.41024 21.32992 16.11264 31.27808c11.06944 11.35104 24.84224 25.47712 24.84224 52.72576 0 27.24352-13.7728 41.3696-24.84224 52.71552-9.70752 9.94816-16.11264 16.52224-16.11264 31.26272 0 14.75584 6.41024 21.32992 16.11264 31.27808 11.06944 11.35104 24.84224 25.48224 24.84224 52.73088s-13.7728 41.37472-24.84224 52.73088c-9.70752 9.94816-16.11776 16.53248-16.11776 31.2832s6.41024 21.33504 16.11264 31.2832c11.06944 11.35616 24.84224 25.48736 24.84224 52.74112 0 16.91136-5.30432 28.75904-11.97056 38.03648 0.07168 0.61952 0.14848 1.24928 0.2048 1.85344 8.74496-1.9712 16.7936-6.57408 26.95168-20.22912z"
    fill="#84B857" p-id="2340"></path>
  <path
    d="M961.1776 503.26528c0-232.74496-171.16672-425.50272-394.48576-459.28448 4.39296 6.75328 8.4224 13.66016 12.24192 20.29568 9.09312 15.80544 17.68448 30.74048 28.30848 37.85216 13.77792 9.23136 33.74592 12.16512 53.05344 15.00672 22.85568 3.36384 46.49472 6.84032 63.28832 21.06368 21.12 17.88928 29.08672 45.056 36.11648 69.02272 4.80768 16.4096 9.35424 31.90272 17.01888 40.96512 10.57792 12.50304 27.66848 21.62176 44.19584 30.4384 21.64736 11.5456 44.032 23.49056 54.22592 44.47232 13.03552 26.81856 6.1952 56.34048 0.15872 82.38592-3.584 15.47776-6.97344 30.10048-5.71904 41.62048 1.50016 13.76768 8.27392 28.6464 15.44704 44.40064 11.14624 24.47872 22.67136 49.78688 16.06656 75.85792-6.43072 25.37472-27.63776 42.38848-48.14848 58.83904-14.03392 11.25888-27.29472 21.89824-34.1248 33.81248-6.99904 12.20608-9.12896 29.55264-11.38176 47.91808-3.05152 24.9344-6.21056 50.71872-22.41536 69.69344-16.4352 19.2512-41.35424 26.8288-65.44896 34.16576-17.6896 5.38112-34.39616 10.46528-44.25216 19.33824-12.81536 11.54048-20.85376 30.68416-28.62592 49.19808-8.7296 20.79744-17.75616 42.30144-34.56512 54.5792-34.09408 24.89856-55.6032 22.69184-74.60352 20.75136-8.14592-0.83968-15.31904-1.50528-23.53664 0.07168 0.87552 3.77856 2.64704 7.41888 5.9392 11.48416 245.73952-12.12928 441.24672-215.19872 441.24672-463.9488zM453.97504 794.68544c0-27.25376 13.7728-41.37984 24.84224-52.736 9.70752-9.94816 16.11264-16.52736 16.11264-31.27808s-6.41024-21.32992-16.11264-31.27808c-11.06944-11.35104-24.84224-25.48224-24.84224-52.73088 0-27.24352 13.7728-41.3696 24.84224-52.71552 9.70752-9.94816 16.11264-16.52224 16.11264-31.26272 0-14.75072-6.41024-21.3248-16.11264-31.27808-11.06944-11.35104-24.84224-25.47712-24.84224-52.72576s13.7728-41.37472 24.84224-52.72064c9.70752-9.94816 16.11264-16.52224 16.11264-31.27296 0-14.7456-6.41024-21.31968-16.11264-31.26784-11.06944-11.35104-24.84224-25.472-24.84224-52.72064 0-27.24352 13.7728-41.3696 24.84224-52.71552 9.70752-9.94816 16.11264-16.52224 16.11264-31.26784 0-14.7456-6.41024-21.3248-16.11264-31.27296-11.06944-11.35104-24.84224-25.47712-24.84224-52.72576 0-12.71296 3.01568-22.54848 7.34208-30.59712-12.59008 3.71712-24.30464 7.94112-29.46048 14.5664-7.81312 10.0352-8.08448 28.21632-8.34048 45.79328-0.27648 18.74432-0.5632 38.12352-9.46688 53.5808-9.85088 17.10592-27.33056 27.88352-44.24192 38.30784-13.99296 8.63232-28.4672 17.55648-32.16896 27.34592-4.41856 11.68384 1.04448 29.056 6.32832 45.85984 5.5808 17.7408 11.35104 36.08064 8.064 53.5296-3.54816 18.8416-16.08192 34.5856-28.20096 49.81248-10.42944 13.10208-21.20704 26.64448-21.30944 37.53984-0.10752 12.07296 10.81856 26.37312 21.39136 40.19712 11.4944 15.03232 23.37792 30.57152 26.19904 48.50176 3.00544 19.10272-3.85536 38.26176-10.49088 56.7808-5.61664 15.68256-11.42272 31.89248-8.17664 42.32704 3.64544 11.68384 18.20672 22.22592 32.29184 32.41472 15.49824 11.21792 31.52384 22.81984 39.10656 39.41888 8.51456 18.64704 6.54336 40.72448 4.80256 60.2112-1.41824 15.93344-2.88768 32.41472 2.2272 40.9856 7.36256 12.33408 24.96512 19.80928 41.98912 27.02848 16.8192 7.1424 32.68096 13.952 42.5984 26.30656-1.57696-10.6752-7.40352-16.7424-15.65184-25.20576-11.06432-11.35616-24.832-25.48224-24.832-52.736z"
    fill="#84B857" p-id="2341"></path>
  <path
    d="M537.52832 955.66848c19.00032 1.94048 40.50944 4.15232 74.60352-20.75136 16.80896-12.27776 25.83552-33.78688 34.56512-54.5792 7.77216-18.51392 15.81056-37.6576 28.62592-49.19808 9.856-8.87296 26.56256-13.96224 44.25216-19.33824 24.09472-7.33696 49.01376-14.91456 65.44896-34.16576 16.2048-18.97472 19.36384-44.75904 22.41536-69.69344 2.24768-18.36544 4.3776-35.71712 11.38176-47.91808 6.83008-11.90912 20.09088-22.54848 34.1248-33.81248 20.51072-16.45056 41.71776-33.46432 48.14848-58.83904 6.6048-26.07104-4.92032-51.3792-16.06656-75.85792-7.168-15.75424-13.94688-30.63296-15.44704-44.40064-1.2544-11.52 2.13504-26.14272 5.71904-41.62048 6.03648-26.04544 12.8768-55.57248-0.15872-82.38592-10.19392-20.98176-32.57856-32.92672-54.22592-44.47232-16.52736-8.81664-33.6128-17.93536-44.19584-30.4384-7.66464-9.0624-12.2112-24.55552-17.01888-40.96512-7.02976-23.96672-14.99648-51.13344-36.11648-69.02272-16.7936-14.22336-40.43264-17.70496-63.28832-21.06368-19.30752-2.8416-39.27552-5.77536-53.05344-15.00672-10.624-7.11168-19.21536-22.04672-28.30848-37.85216-3.81952-6.63552-7.84384-13.5424-12.24192-20.29568A466.76992 466.76992 0 0 0 496.64 38.72256c-0.57344 0-1.14176 0.02048-1.71008 0.02048 0 1.33632-0.10752 2.53952-0.21504 3.74784a15.22176 15.22176 0 0 0-2.40128 1.04448c-14.336 8.00768-34.55488 9.03168-54.10304 10.01472-22.86592 1.152-46.51008 2.34496-64.72704 14.5408-22.05184 14.76608-33.38752 39.808-43.39712 61.90592-7.32672 16.18432-14.24896 31.46752-23.68512 39.45984-12.7232 10.77248-31.88736 16.36864-50.42176 21.77536-22.62016 6.6048-46.00832 13.42976-60.45696 30.49984-18.79552 22.20544-20.99712 51.52768-22.9376 77.39904-1.21856 16.24064-2.37056 31.58528-7.3728 41.87648-6.67136 13.72672-19.4816 26.58816-31.872 39.02464-18.3808 18.45248-37.39136 37.53984-40.12544 62.64832-3.072 28.19584 13.37344 53.1456 27.88352 75.1616 9.21088 13.97248 17.90976 27.17696 21.02784 39.48032 3.31264 13.0816 1.52576 29.57824-0.36352 47.04768-2.83136 26.10176-5.75488 53.08928 7.40864 76.03712 12.5184 21.82144 36.11648 33.25952 58.94144 44.31872 16.72192 8.10496 32.51712 15.75936 41.53344 26.32192 9.83552 11.52 15.1808 30.08512 20.34688 48.04096 6.64064 23.07584 13.50656 46.93504 30.7968 62.49984 20.05504 18.05824 47.66208 23.05024 72.01792 27.44832 17.22368 3.11296 33.49504 6.05696 42.74176 12.81024 22.9632 16.768 27.63264 30.42304 32.35328 44.8256a15.3088 15.3088 0 0 0 2.91328 17.57696c0.55808 0.55296 1.15712 1.03424 1.77664 1.47456 14.50496 1.36192 29.19424 2.08896 44.05248 2.08896 7.808 0 15.58016-0.19968 23.296-0.57856-3.29728-4.06528-5.06368-7.7056-5.9392-11.48416 8.20736-1.5872 15.3856-0.9216 23.5264-0.08192z m52.62336-828.01664c19.54304 13.09184 44.05248 16.69632 65.67424 19.87584 19.44576 2.86208 37.81632 5.56032 47.91296 14.11584 14.08512 11.93472 20.38784 33.4336 26.48576 54.22592 5.49888 18.75456 11.1872 38.144 23.05024 52.16768 14.38208 16.99328 34.9952 27.99104 53.18656 37.69344 18.11456 9.66656 35.22048 18.7904 41.05728 30.7968 8.28416 17.04448 3.2256 38.89152-2.13504 62.02368-4.00896 17.29536-8.15616 35.17952-6.33344 51.88096 2.03264 18.67776 10.1632 36.53632 18.02752 53.80608 9.35936 20.55168 18.2016 39.96672 14.23872 55.5776-3.90144 15.40096-20.26496 28.52864-37.59104 42.42944-15.65184 12.54912-31.83104 25.52832-41.55392 42.48576-10.09152 17.59232-12.6976 38.88128-15.22176 59.4688-2.61632 21.36576-5.08928 41.53856-15.2832 53.4784-10.60864 12.42624-30.24384 18.40128-51.03104 24.72448-20.12672 6.12352-40.9344 12.45696-55.86944 25.90208-17.92 16.13824-27.73504 39.52128-36.38784 60.14464-7.42912 17.69984-14.44352 34.41664-24.36096 41.65632-15.4624 11.29472-26.2144 14.96064-36.0704 15.7184a119.7568 119.7568 0 0 0 7.53664-9.14944c10.91584-14.68416 11.27424-35.25632 11.6224-55.14752 0.3072-17.46944 0.6144-35.53792 7.7568-47.49824 4.9152-8.22784 18.3552-15.72352 31.35488-22.96832 18.82624-10.496 40.1664-22.38976 49.66912-43.20256 8.60672-18.86208 4.05504-40.4992-0.34816-61.42976-3.31264-15.72864-6.7328-31.99488-3.23584-43.22304 3.08224-9.88672 14.43328-20.73088 25.41568-31.22176 15.47264-14.77632 33.00864-31.52384 36.50048-53.6832 3.33312-21.20192-7.53152-41.07264-18.03264-60.29312-7.53152-13.77792-15.31392-28.02176-15.42144-39.46496-0.09728-10.23488 7.06048-23.92576 13.9776-37.16608 10.04544-19.23072 21.43744-41.02656 17.19296-63.54432-3.93728-20.89472-20.87424-35.79392-37.25312-50.20672-11.89888-10.46528-24.21248-21.29408-28.36992-32.29184-3.51232-9.28256-1.43872-24.41728 0.55808-39.05024 2.944-21.53472 6.28224-45.93664-5.2736-65.9968-10.28096-17.85856-30.58176-26.496-50.21184-34.84672-14.9248-6.3488-30.35648-12.91264-37.79584-22.46656-4.9664-6.37952-7.33184-17.76128-9.1904-29.76768 9.82016 17.00864 20.26496 34.07872 35.75296 44.44672zM478.81216 910.0032a183.26016 183.26016 0 0 0-8.53504 9.17504c-5.9904-12.80512-15.95904-27.06432-36.61312-42.14784-14.94528-10.91584-34.59584-14.46912-55.3984-18.23232-21.31968-3.85024-43.36128-7.8336-56.92416-20.04992-10.752-9.68192-16.13312-28.37504-21.82656-48.16384-6.07232-21.09952-12.34944-42.91584-26.50624-59.4944-13.19424-15.45216-32.6656-24.88832-51.50208-34.01728-19.48672-9.4464-37.888-18.36544-45.69088-31.96416-8.192-14.27456-5.91872-35.24096-3.51744-57.43616 2.10432-19.39968 4.2752-39.47008-0.39424-57.91232-4.39296-17.3312-14.94528-33.34656-25.15968-48.83456-12.78976-19.4048-24.86784-37.7344-22.99392-54.93248 1.56672-14.39232 16.03584-28.91264 31.34976-44.29312 14.17216-14.22336 28.8256-28.93824 37.73952-47.27296 7.56736-15.56992 8.99584-34.60096 10.37824-53.00736 1.66912-22.2464 3.39968-45.25056 15.75424-59.8528 8.4736-10.01472 26.51648-15.27808 45.61408-20.85376 20.60288-6.016 43.96032-12.83072 61.66528-27.82208 14.71488-12.46208 23.40864-31.66208 31.81568-50.23232 8.71936-19.2512 17.73568-39.15776 32.50688-49.05472 4.70016-3.1488 10.752-5.0944 17.58208-6.41024-0.16896 0.21504-0.37888 0.384-0.54272 0.59904-14.13632 18.16064-14.49984 42.624-14.8224 64.21504-0.21504 14.82752-0.44544 30.1568-5.37088 38.7072-5.97504 10.368-20.09088 19.072-33.7408 27.4944-18.37568 11.33056-37.376 23.04512-44.78464 42.62912-8.17664 21.62688-0.77312 45.16864 5.76 65.94048 4.44416 14.1312 9.04192 28.73856 7.17824 38.62528-2.13504 11.35616-12.25728 24.06912-22.04672 36.36736-13.66528 17.16736-27.79648 34.9184-27.99104 56.39168-0.2048 22.6304 14.62272 42.02496 27.70944 59.14112 9.16992 11.98592 18.64704 24.38144 20.25984 34.62144 1.78688 11.35104-3.73248 26.752-9.06752 41.64096-7.3216 20.43904-14.89408 41.57952-8.58112 61.824 6.68672 21.44256 26.30144 35.6352 43.60704 48.16384 12.26752 8.87808 24.96 18.06336 29.17376 27.2896 5.13536 11.24864 3.61984 28.26752 2.1504 44.71808-1.85856 20.8128-3.77856 42.33728 6.44096 59.45856 12.50816 20.95104 35.80928 30.83776 56.36096 39.56736 12.88192 5.46816 26.20416 11.12576 31.0528 17.64352 4.48512 6.03136 7.42912 11.35616 9.34912 16.27136-0.48128 0.50688-0.93696 0.98816-1.43872 1.50016z m-26.95168-63.68768c-17.024-7.2192-34.62144-14.6944-41.98912-27.02848-5.11488-8.57088-3.64544-25.05216-2.2272-40.9856 1.73568-19.48672 3.70688-41.56416-4.80256-60.2112-7.5776-16.59904-23.60832-28.20096-39.10656-39.41888-14.08512-10.1888-28.6464-20.73088-32.29184-32.41472-3.2512-10.42944 2.56-26.64448 8.17664-42.32704 6.63552-18.51904 13.49632-37.67296 10.49088-56.7808-2.82112-17.93024-14.70976-33.46944-26.19904-48.50176-10.5728-13.824-21.504-28.12416-21.39136-40.19712 0.1024-10.89536 10.88-24.43776 21.30944-37.53984 12.11904-15.22688 24.6528-30.97088 28.20096-49.81248 3.28704-17.44896-2.4832-35.7888-8.064-53.5296-5.28384-16.80384-10.752-34.176-6.32832-45.85984 3.70176-9.78944 18.176-18.7136 32.16896-27.34592 16.90624-10.42432 34.39104-21.20704 44.24192-38.30784 8.90368-15.4624 9.1904-34.8416 9.46688-53.5808 0.26112-17.58208 0.53248-35.75808 8.34048-45.79328 5.15584-6.62016 16.86528-10.84928 29.46048-14.5664-4.3264 8.04864-7.34208 17.88416-7.34208 30.59712 0 27.24864 13.7728 41.37472 24.84224 52.72576 9.70752 9.94816 16.11264 16.52736 16.11264 31.27296 0 14.7456-6.41024 21.31968-16.11264 31.26784-11.06944 11.34592-24.84224 25.472-24.84224 52.71552 0 27.24864 13.7728 41.3696 24.84224 52.72064 9.70752 9.94816 16.11264 16.52224 16.11264 31.26784 0 14.75072-6.41024 21.3248-16.11264 31.27296-11.06944 11.35104-24.84224 25.47712-24.84224 52.72064 0 27.24864 13.7728 41.37472 24.84224 52.72576 9.7024 9.95328 16.11264 16.53248 16.11264 31.27808s-6.41024 21.31456-16.11264 31.26272c-11.06944 11.34592-24.84224 25.472-24.84224 52.71552 0 27.24864 13.7728 41.37984 24.84224 52.73088 9.7024 9.94816 16.11264 16.52736 16.11264 31.27808s-6.41024 21.32992-16.11264 31.27808c-11.06944 11.35616-24.84224 25.48224-24.84224 52.736s13.7728 41.37984 24.84224 52.73088c8.24832 8.46336 14.07488 14.53056 15.65184 25.20576-9.92768-12.34944-25.78944-19.16416-42.60864-26.30144z m61.81888 70.43072c6.66624-9.27744 11.97056-21.12512 11.97056-38.03648 0-27.25376-13.7728-41.38496-24.84224-52.74112-9.7024-9.94816-16.11264-16.53248-16.11264-31.2832s6.41024-21.33504 16.11776-31.2832c11.06432-11.35616 24.84224-25.48224 24.84224-52.73088s-13.7728-41.37984-24.84224-52.73088c-9.7024-9.94816-16.11264-16.52736-16.11264-31.27808 0-14.7456 6.41024-21.31456 16.11264-31.26272 11.06944-11.34592 24.84224-25.472 24.84224-52.71552 0-27.24864-13.7728-41.37472-24.84224-52.72576-9.70752-9.95328-16.11264-16.52736-16.11264-31.27808s6.41024-21.3248 16.11264-31.27296c11.06944-11.35104 24.84224-25.47712 24.84224-52.72064s-13.7728-41.3696-24.84224-52.72064c-9.70752-9.94816-16.11264-16.52224-16.11264-31.26784 0-14.7456 6.41024-21.31968 16.11264-31.26272 11.06944-11.34592 24.84224-25.472 24.84224-52.71552s-13.7728-41.37472-24.84224-52.72064c-9.70752-9.94816-16.11264-16.52736-16.11264-31.27296 0-14.7456 6.41024-21.31968 16.11264-31.26784 6.05696-6.21056 12.91776-13.27104 17.8944-22.84544 0.7424-0.59392 1.41312-1.26976 2.12992-1.89952 0.7168 4.1984 1.33632 8.4992 1.95072 12.76928 2.69312 18.75456 5.4784 38.144 16.5632 52.3776 12.32384 15.83616 31.47776 23.9872 50.01216 31.86688 14.976 6.36928 30.464 12.95872 35.61472 21.90848 6.31296 10.97216 3.84512 29.03552 1.4592 46.50496-2.51904 18.43712-5.12512 37.49888 1.14688 54.08256 6.86592 18.14528 22.08256 31.5392 36.80768 44.48768 12.47744 10.97728 25.37984 22.32832 27.35616 32.82944 2.26816 12.05248-6.1184 28.10368-14.2336 43.63264-8.66816 16.5888-17.63328 33.74592-17.46944 51.67104 0.17408 19.13856 9.84064 36.81792 19.18464 53.91872 8.0384 14.70464 16.35328 29.91616 14.63808 40.7808-1.8688 11.89888-14.82752 24.27904-27.3664 36.2496-13.80864 13.184-28.0832 26.81856-33.53088 44.29312-5.87776 18.8672-1.61792 39.11168 2.49856 58.69056 3.38432 16.07168 6.88128 32.68608 2.46272 42.34752-5.31456 11.648-21.25824 20.53632-36.67456 29.12768-16.5376 9.22112-33.6384 18.75456-42.7776 34.05824-11.33056 18.99008-11.73504 42.21952-12.08832 62.71488-0.26112 15.03744-0.53248 30.58688-5.5552 37.34528-10.15296 13.65504-18.20672 18.25792-26.94656 20.2496-0.06144-0.62464-0.13824-1.2544-0.20992-1.87392z"
    fill="#639635" p-id="2342"></path>
  <path
    d="M591.01184 854.3744l68.096 64.45568 172.8 14.96576 123.08992-29.58848 13.06624-49.83296-198.88128-527.74912z"
    fill="#E85347" p-id="2343"></path>
  <path
    d="M984.58112 903.0656l-16.51712-53.4272c-54.12864 25.87136-118.89152 40.95488-188.52352 40.95488-69.64224 0-134.4-15.08352-188.52864-40.95488l-16.51712 53.4272c57.2416 31.00672 128.14848 49.42336 205.04576 49.42336 76.88704 0 147.79904-18.41664 205.04064-49.42336z"
    fill="#639635" p-id="2344"></path>
  <path
    d="M779.54048 968.22272c-78.75584 0-151.27552-19.28704-209.21856-51.6608l-3.40992 11.0336c58.49088 33.52576 132.34176 53.53472 212.62848 53.53472 80.28672 0 154.13248-20.00896 212.62336-53.53472l-3.40992-11.0336c-57.94304 32.37888-130.46272 51.6608-209.21344 51.6608z"
    fill="#639635" p-id="2345"></path>
  <path
    d="M988.75392 916.56704l-4.1728-13.50144c-57.2416 31.00672-128.14848 49.42336-205.04064 49.42336-76.89728 0-147.80416-18.42176-205.04576-49.42336l-4.1728 13.50144c57.94304 32.37376 130.46272 51.6608 209.21856 51.6608 78.75072-0.00512 151.2704-19.28704 209.21344-51.6608z"
    fill="#84B857" p-id="2346"></path>
  <path
    d="M814.82752 564.2496c7.32672 5.52448 36.224-12.08832 18.94912-25.12384-17.26464-13.03552-18.94912 25.12384-18.94912 25.12384zM723.5072 655.43168c8.92416-2.14528 13.70624-35.65056-7.34208-30.60736s7.34208 30.60736 7.34208 30.60736zM827.93472 743.91552c9.17504-0.1792 21.00736-31.89248-0.63488-31.4624-21.63712 0.43008 0.63488 31.4624 0.63488 31.4624zM843.71456 656.96256c8.88832-2.25792 13.22496-35.82976-7.75168-30.50496-20.97152 5.32992 7.75168 30.50496 7.75168 30.50496zM663.46496 807.52128c8.5248-3.40992 8.40704-37.25824-11.68896-29.21984-20.096 8.03328 11.68896 29.21984 11.68896 29.21984zM761.41568 852.46464c9.17504 0.15872 22.18496-31.08864 0.54784-31.46752-21.632-0.37888-0.54784 31.46752-0.54784 31.46752zM892.29824 827.1872c8.2688-3.968 5.88288-37.72928-13.62432-28.36992-19.50208 9.36448 13.62432 28.36992 13.62432 28.36992zM734.94016 478.14656c7.32672 5.5296 36.224-12.08832 18.94912-25.12384-17.26976-13.03552-18.94912 25.12384-18.94912 25.12384z"
    fill="#FBDCDC" p-id="2347"></path>
</svg>